<svg width="13" height="4" viewBox="0 0 13 4" fill="none" xmlns="http://www.w3.org/2000/svg">
<path d="M6.01591 0.851362C6.88782 0.851362 7.58241 1.56071 7.58241 2.41787C7.58241 3.28978 6.87307 3.98438 6.01591 3.98438C5.144 3.98438 4.4494 3.27503 4.4494 2.41787C4.4494 1.54596 5.144 0.851362 6.01591 0.851362Z" fill="#777676"/>
<path d="M10.4493 0.851362C11.3212 0.851362 12.0158 1.56071 12.0158 2.41787C12.0158 3.28978 11.3065 3.98438 10.4493 3.98438C9.59216 3.98438 8.88281 3.28978 8.88281 2.41787C8.88281 1.54596 9.57741 0.851362 10.4493 0.851362Z" fill="#777676"/>
<path d="M1.58213 0.851362C2.45404 0.851362 3.14864 1.56071 3.14864 2.41787C3.14864 3.28978 2.43929 3.98438 1.58213 3.98438C0.724972 3.98438 0.015625 3.28978 0.015625 2.41787C0.015625 1.54596 0.71022 0.851362 1.58213 0.851362Z" fill="#777676"/>
</svg>
