<svg width="12" height="12" viewBox="0 0 12 12" fill="none" xmlns="http://www.w3.org/2000/svg">
<path d="M4.21875 10C4.65022 10 5 9.65022 5 9.21875C5 8.78728 4.65022 8.4375 4.21875 8.4375C3.78728 8.4375 3.4375 8.78728 3.4375 9.21875C3.4375 9.65022 3.78728 10 4.21875 10Z" fill="white"/>
<path d="M8.28125 10C8.71272 10 9.0625 9.65022 9.0625 9.21875C9.0625 8.78728 8.71272 8.4375 8.28125 8.4375C7.84978 8.4375 7.5 8.78728 7.5 9.21875C7.5 9.65022 7.84978 10 8.28125 10Z" fill="white"/>
<path d="M10.3435 1.99197C10.3144 1.95415 10.277 1.92351 10.2342 1.90238C10.1914 1.88125 10.1444 1.87021 10.0967 1.87009H2.87791L2.73728 1.42322C2.72184 1.37524 2.69501 1.33171 2.6591 1.29634C2.62318 1.26097 2.57924 1.23481 2.53103 1.22009L1.24978 0.826345C1.21039 0.814239 1.16899 0.810011 1.12796 0.813902C1.08693 0.817794 1.04707 0.829729 1.01065 0.849026C0.9371 0.887999 0.882045 0.954592 0.857595 1.03416C0.833146 1.11372 0.841304 1.19974 0.880277 1.27329C0.919249 1.34684 0.985843 1.4019 1.06541 1.42634L2.18728 1.77009L3.61853 6.29197L3.10916 6.71072L3.06853 6.75135C2.94256 6.89721 2.87119 7.08231 2.86663 7.27499C2.86207 7.46766 2.92461 7.65594 3.04353 7.8076C3.12871 7.91118 3.23694 7.99339 3.35958 8.04765C3.48221 8.10191 3.61584 8.12672 3.74978 8.1201H8.96541C9.04829 8.1201 9.12777 8.08717 9.18638 8.02857C9.24498 7.96996 9.27791 7.89048 9.27791 7.8076C9.27791 7.72472 9.24498 7.64523 9.18638 7.58662C9.12777 7.52802 9.04829 7.4951 8.96541 7.4951H3.69978C3.6638 7.49387 3.62874 7.48338 3.59799 7.46464C3.56724 7.44591 3.54184 7.41956 3.52425 7.38814C3.50666 7.35673 3.49746 7.32131 3.49756 7.2853C3.49765 7.24929 3.50703 7.21392 3.52478 7.1826L4.27791 6.5576H9.09978C9.17117 6.55968 9.24111 6.53724 9.29797 6.49403C9.35483 6.45082 9.39517 6.38943 9.41228 6.3201L10.4123 2.25759C10.4218 2.21101 10.4205 2.16286 10.4086 2.11683C10.3967 2.0708 10.3744 2.0281 10.3435 1.99197Z" fill="white"/>
</svg>
